<svg xmlns="http://www.w3.org/2000/svg" enable-background="new 0 0 512 512" viewBox="0 0 512 512"><path d="M363.865,78.839h-215.73c-3.826,0-6.93,3.103-6.93,6.93v338.108c0,3.829,3.103,6.928,6.93,6.928h215.73
		c3.826,0,6.93-3.099,6.93-6.928V85.769C370.795,81.942,367.692,78.839,363.865,78.839z M356.935,416.949h-201.87V92.699h201.87
		V416.949z M175.199,403.743h161.602c3.826,0,6.93-3.099,6.93-6.928V112.833c0-3.826-3.103-6.93-6.93-6.93H175.199
		c-3.826,0-6.93,3.103-6.93,6.93v283.982C168.269,400.644,171.373,403.743,175.199,403.743z M182.129,318.612v-127.96
		c17.556,0.35,34.352,6.941,46.897,18.684c12.925,12.099,20.044,28.206,20.044,45.356c0,17.078-7.106,33.136-20.01,45.212
		C216.504,311.656,199.658,318.284,182.129,318.612z M238.53,310.026c7.495-7.017,13.331-15.174,17.446-24.033
		c4.07,8.803,9.835,16.888,17.238,23.817c7.137,6.68,15.418,11.926,24.332,15.736c-8.833,3.763-17.027,8.921-24.061,15.506
		c-7.521,7.041-13.374,15.24-17.493,24.156c-4.121-8.901-9.973-17.091-17.492-24.129c-7.033-6.583-15.211-11.744-24.025-15.512
		C223.301,321.796,231.488,316.616,238.53,310.026z M329.871,190.643V318.6c-17.574-0.36-34.5-7.037-47.187-18.912
		c-12.738-11.923-19.754-27.9-19.754-44.996c0-17.175,7.112-33.294,20.026-45.383C295.483,197.582,312.311,190.972,329.871,190.643z
		 M273.486,199.192c-7.522,7.041-13.376,15.24-17.495,24.155c-4.121-8.901-9.975-17.092-17.495-24.13
		c-7.032-6.581-15.215-11.741-24.03-15.507c8.83-3.771,17.02-8.952,24.064-15.546c7.504-7.023,13.346-15.19,17.461-24.06
		c4.113,8.885,9.955,17.061,17.461,24.087c7.026,6.577,15.202,11.748,24.02,15.513C288.668,187.469,280.502,192.623,273.486,199.192
		z M182.129,332.505c17.556,0.335,34.352,6.945,46.897,18.695c11.237,10.512,18.069,24.06,19.668,38.688h-66.564V332.505z
		 M263.305,389.887c1.596-14.647,8.424-28.204,19.649-38.715c12.528-11.728,29.371-18.339,46.917-18.67v57.385H263.305z
		 M329.871,176.742c-17.579-0.349-34.41-6.933-46.949-18.669c-11.134-10.421-17.92-23.83-19.572-38.309h66.521V176.742z
		 M248.648,119.763c-1.655,14.457-8.447,27.856-19.588,38.285c-12.555,11.751-29.402,18.362-46.931,18.701v-56.985H248.648z
		 M391.191,0.13c-3.826,0-6.93,3.103-6.93,6.93v44.453h-40.269V6.93c0-3.826-3.103-6.93-6.93-6.93s-6.93,3.103-6.93,6.93v44.584
		h-40.269V6.93c0-3.826-3.103-6.93-6.93-6.93s-6.93,3.103-6.93,6.93v44.584h-40.138V6.93c0-3.826-3.103-6.93-6.93-6.93
		c-3.826,0-6.93,3.103-6.93,6.93v44.584h-40.269V6.93c0-3.826-3.103-6.93-6.93-6.93c-3.826,0-6.93,3.103-6.93,6.93v44.584h-40.138
		V6.93c0-3.826-3.103-6.93-6.93-6.93c-3.826,0-6.93,3.103-6.93,6.93v51.514v392.761c0,0.403,0.053,0.792,0.119,1.176
		c-0.066,0.384-0.119,0.772-0.119,1.176v51.516c0,3.829,3.103,6.928,6.93,6.928c3.826,0,6.93-3.099,6.93-6.928v-46.94h40.138v46.94
		c0,3.829,3.103,6.928,6.93,6.928c3.826,0,6.93-3.099,6.93-6.928v-46.94h40.269v46.94c0,3.829,3.103,6.928,6.93,6.928
		c3.826,0,6.93-3.099,6.93-6.928v-46.94h40.138v46.94c0,3.829,3.103,6.928,6.93,6.928s6.93-3.099,6.93-6.928v-46.94h40.269v46.94
		c0,3.829,3.103,6.928,6.93,6.928s6.93-3.099,6.93-6.928v-46.94h40.269v46.809c0,3.829,3.103,6.928,6.93,6.928
		c3.826,0,6.93-3.099,6.93-6.928v-51.516c0-0.381-0.053-0.747-0.112-1.11c0.059-0.364,0.112-0.73,0.112-1.11V58.574v-0.131V7.06
		C398.121,3.234,395.017,0.13,391.191,0.13z M127.739,65.373h256.521v378.904H127.739V65.373z"/></svg>