<svg xmlns="http://www.w3.org/2000/svg" enable-background="new 0 0 512 512" viewBox="0 0 512 512"><path d="M256,0.078C114.884,0.078,0.078,114.884,0.078,256S114.884,511.922,256,511.922S511.922,397.116,511.922,256S397.116,0.078,256,0.078z M256,501.259C120.765,501.259,10.741,391.235,10.741,256S120.765,10.741,256,10.741S501.259,120.765,501.259,256S391.235,501.259,256,501.259z"/><path d="M256,35.955C134.667,35.955,35.955,134.667,35.955,256S134.667,476.045,256,476.045S476.045,377.333,476.045,256S377.333,35.955,256,35.955z M256,465.382c-115.455,0-209.382-93.927-209.382-209.382S140.545,46.618,256,46.618S465.382,140.545,465.382,256S371.455,465.382,256,465.382z"/><path d="M256 422.723c-2.944 0-5.332 2.387-5.332 5.332v21.327c0 2.944 2.387 5.332 5.332 5.332s5.332-2.387 5.332-5.332v-21.327C261.332 425.11 258.944 422.723 256 422.723zM130.614 373.847l-15.089 15.089c-2.083 2.083-2.083 5.457 0 7.539 2.083 2.083 5.457 2.083 7.539 0l15.089-15.089c2.083-2.083 2.083-5.457 0-7.539S132.696 371.764 130.614 373.847zM388.936 115.524l-15.089 15.089c-2.083 2.083-2.083 5.457 0 7.539 2.083 2.083 5.457 2.083 7.539 0l15.089-15.089c2.083-2.083 2.083-5.457 0-7.539S391.019 113.442 388.936 115.524zM83.945 250.668H62.619c-2.944 0-5.332 2.387-5.332 5.332s2.387 5.332 5.332 5.332h21.327c2.944 0 5.332-2.387 5.332-5.332S86.89 250.668 83.945 250.668zM449.381 250.668h-21.327c-2.944 0-5.332 2.387-5.332 5.332s2.387 5.332 5.332 5.332h21.327c2.944 0 5.332-2.387 5.332-5.332S452.326 250.668 449.381 250.668zM123.064 115.524c-2.083-2.083-5.457-2.083-7.539 0s-2.083 5.457 0 7.539l15.089 15.089c2.083 2.083 5.457 2.083 7.539 0 2.083-2.083 2.083-5.457 0-7.539L123.064 115.524zM381.386 373.847c-2.083-2.083-5.457-2.083-7.539 0s-2.083 5.457 0 7.539l15.089 15.089c2.083 2.083 5.457 2.083 7.539 0 2.083-2.083 2.083-5.457 0-7.539L381.386 373.847zM233.116 140.34l22.79-11.793 22.983 11.775h.003c4.069 2.08 8.818 1.362 12.09-1.843 3.267-3.207 4.082-7.938 2.075-12.051L265.39 69.723c-1.768-3.621-5.368-5.868-9.398-5.868-.003 0-.005 0-.008 0-4.03.003-7.628 2.255-9.39 5.876l-27.653 56.725c-2.007 4.116-1.19 8.846 2.083 12.051C224.261 141.682 229.012 142.451 233.116 140.34zM255.807 74.401l27.968 56.441-23.006-11.788c-2.989-1.533-6.558-1.528-9.541.005l-22.701 12.067L255.807 74.401zM322.42 172.991H189.58c-7.125 0-12.921 5.795-12.921 12.921v147.765c0 2.944 2.387 5.332 5.332 5.332 50.477 0 92.062 0 148.018 0 2.944 0 5.332-2.387 5.332-5.332V185.912C335.341 178.786 329.545 172.991 322.42 172.991zM189.58 183.655h132.84c1.244 0 2.257 1.013 2.257 2.257v20.181H187.323v-20.181C187.323 184.667 188.336 183.655 189.58 183.655zM260.715 322.858c-12.358-11.036-18.866-25.901-19.64-45.266-.112-2.858-2.465-5.118-5.327-5.118-2.861 0-5.215 2.26-5.327 5.121-.772 19.361-7.279 34.224-19.635 45.261v-56.664c0-2.26 1.841-4.1 4.1-4.1h41.727c2.26 0 4.1 1.841 4.1 4.1V322.858zM220.641 328.345c6.641-6.615 11.684-14.36 15.107-23.196 3.426 8.836 8.469 16.581 15.11 23.196H220.641zM271.378 328.345v-62.153c0-8.141-6.623-14.764-14.764-14.764h-41.727c-8.141 0-14.764 6.623-14.764 14.764v62.153h-12.801V216.757h137.354v111.589H271.378z"/></svg>